<svg width="134" height="134" viewBox="0 0 134 134" fill="none" xmlns="http://www.w3.org/2000/svg">
<g filter="url(#filter0_d_40_870)">
<circle cx="67" cy="67" r="39" fill="#ED1B24"/>
<path d="M67.0001 44C53.7626 44 43 53.2339 43 64.5841C43 69.4228 44.948 73.8706 48.2103 77.367C49.5169 78.7676 49.8485 80.8494 49.0373 82.5989C48.0701 84.6868 46.8228 86.9096 45.3228 88.5743C44.4642 89.5537 45.2221 91.0511 46.4853 90.9987C52.6232 90.6561 57.0463 88.1329 59.8157 85.8697C60.8005 85.0656 62.0637 84.721 63.3131 84.8963C64.5131 85.0656 65.7466 85.1704 66.9999 85.1704C80.2374 85.1704 91 75.9365 91 64.5863C91 53.2341 80.2375 44 67.0001 44ZM55.5311 68.2987C53.51 68.2987 51.8936 66.6482 51.8936 64.5845C51.8936 62.5208 53.51 60.8703 55.5311 60.8703C57.5521 60.8703 59.1686 62.5208 59.1686 64.5845C59.1686 66.6482 57.5521 68.2987 55.5311 68.2987ZM67.0001 68.2987C64.979 68.2987 63.3626 66.6482 63.3626 64.5845C63.3626 62.5208 64.979 60.8179 67.0001 60.8179C69.0211 60.8179 70.6376 62.4684 70.6376 64.5321C70.6376 66.5978 69.0211 68.2987 67.0001 68.2987ZM78.4691 68.2987C76.448 68.2987 74.8316 66.6482 74.8316 64.5845C74.8316 62.5208 76.448 60.8703 78.4691 60.8703C80.4901 60.8703 82.1066 62.5208 82.1066 64.5845C82.1066 66.6482 80.4901 68.2987 78.4691 68.2987Z" fill="white"/>
</g>
<defs>
<filter id="filter0_d_40_870" x="0" y="0" width="134" height="134" filterUnits="userSpaceOnUse" color-interpolation-filters="sRGB">
<feFlood flood-opacity="0" result="BackgroundImageFix"/>
<feColorMatrix in="SourceAlpha" type="matrix" values="0 0 0 0 0 0 0 0 0 0 0 0 0 0 0 0 0 0 127 0" result="hardAlpha"/>
<feOffset/>
<feGaussianBlur stdDeviation="14"/>
<feComposite in2="hardAlpha" operator="out"/>
<feColorMatrix type="matrix" values="0 0 0 0 0 0 0 0 0 0 0 0 0 0 0 0 0 0 0.13 0"/>
<feBlend mode="normal" in2="BackgroundImageFix" result="effect1_dropShadow_40_870"/>
<feBlend mode="normal" in="SourceGraphic" in2="effect1_dropShadow_40_870" result="shape"/>
</filter>
</defs>
</svg>
